# xmcd CD database file
#
# Track frame offsets:
#	150
#	8775
#	36943
#	63065
#	88635
#	118720
#	138530
#	178263
#	196645
#	212405
#	236953
#	267743
#
# Disc length: 3958 seconds
#
# Revision: 4
# Processed by: cddbd v1.5.2PL0 Copyright (c) Steve Scherf et al.
# Submitted via: CDex 1.51
#
DISCID=aa0f740c
DTITLE=Big Daddy Kinsey - I Am The Blues
DYEAR=1993
DGENRE=Blues
TTITLE0=Ode To Muddy Waters
TTITLE1=I Am The Blues
TTITLE2=Baby, Don't Say That No More
TTITLE3=Somebody's Gonna Get Hooked Tonight
TTITLE4=Nine Below Zero
TTITLE5=Walking Thru The Park
TTITLE6=Good Mornin' Mississippi
TTITLE7=Don't You Lie To Me
TTITLE8=The Queen Without A King
TTITLE9=Mannish Boy
TTITLE10=Little Red Rooster
TTITLE11=Got My Mojo Workin'
EXTD=YEAR: 1993
EXTT0=
EXTT1=
EXTT2=
EXTT3=
EXTT4=
EXTT5=
EXTT6=
EXTT7=
EXTT8=
EXTT9=
EXTT10=
EXTT11=
PLAYORDER=
